<svg xmlns="http://www.w3.org/2000/svg" width="232" height="100" fill="none"><path fill="#2C180B" d="M164.796 64c-6.973 0-10.05-2.915-10.05-7.226h6.112c.246 2.053 1.231 3.161 4.02 3.161 2.625 0 3.692-1.026 3.692-2.34 0-1.19-.985-1.847-2.666-2.094l-3.364-.451c-5.333-.78-7.22-2.546-7.22-6.24 0-3.901 2.872-6.816 9.476-6.816s9.476 2.915 9.476 6.897h-6.112c-.205-1.56-.821-2.833-3.446-2.833-2.256 0-3.118.904-3.118 2.217 0 1.15.616 1.684 2.01 1.889l3.323.452c5.046.739 7.917 2.299 7.917 6.569 0 3.9-3.077 6.815-10.05 6.815m-14.237-.164c-5.169 0-6.81-1.642-6.81-6.692V46.798h-3.199v-4.393h3.199V36h6.235v6.405h4.349v4.393h-4.349V57.39c0 1.478.657 2.012 2.133 2.012h2.216v4.188c-.944.082-2.79.246-3.774.246"/><path fill="#2C180B" d="M130.883 64c-7.014 0-10.993-4.393-10.993-11.003s3.979-11.003 10.993-11.003c7.056 0 10.337 4.31 10.337 8.704h-5.907c-.328-2.34-1.641-3.983-4.43-3.983-2.994 0-4.717 2.012-4.717 6.282s1.723 6.282 4.717 6.282c2.379 0 4.061-1.191 4.43-4.147h5.907c0 4.803-3.528 8.868-10.337 8.868m-24.792 0c-5.046 0-7.712-2.504-7.712-6.405 0-3.284 1.887-5.953 7.301-6.405l4.513-.37c1.764-.163 2.256-.697 2.256-1.6 0-1.807-1.108-2.833-3.241-2.833q-3.138 0-3.445 2.833h-6.236c0-4.393 2.79-7.226 9.599-7.226s9.599 2.833 9.599 7.226v8.95c0 2.874.246 4.721.656 5.42h-5.702c-.574-.74-.902-1.56-.902-2.957-1.19 2.217-3.159 3.367-6.686 3.367m1.846-4.188c2.871 0 4.512-2.176 4.512-4.762v-1.19c-.287.328-1.108.533-2.256.656l-2.297.164c-2.339.206-3.241 1.15-3.241 2.464 0 1.6.984 2.668 3.282 2.668M91.852 63.59h-6.276V42.403h5.948v4.557c1.067-3.694 2.912-4.844 5.702-4.844.574 0 1.559.123 1.969.287v5.46l-2.215-.04c-3.118 0-5.128 2.217-5.128 6.076zm-11.285.246c-5.169 0-6.81-1.642-6.81-6.692V46.798h-3.2v-4.393h3.2V36h6.235v6.405h4.348v4.393h-4.348V57.39c0 1.478.657 2.012 2.133 2.012h2.215v4.188c-.943.082-2.789.246-3.773.246"/><path fill="#2C180B" d="M66.948 63.836c-5.168 0-6.809-1.642-6.809-6.692V46.798h-3.2v-4.393h3.2V36h6.235v6.405h4.348v4.393h-4.348V57.39c0 1.478.656 2.012 2.133 2.012h2.215v4.188c-.943.082-2.79.246-3.774.246M44.112 64c-5.045 0-7.712-2.504-7.712-6.405 0-3.284 1.887-5.953 7.302-6.405l4.512-.37c1.764-.163 2.256-.697 2.256-1.6 0-1.807-1.107-2.833-3.24-2.833q-3.138 0-3.446 2.833h-6.235c0-4.393 2.79-7.226 9.599-7.226s9.598 2.833 9.598 7.226v8.95c0 2.874.246 4.721.657 5.42H51.7c-.574-.74-.903-1.56-.903-2.957C49.609 62.85 47.64 64 44.113 64m1.846-4.188c2.872 0 4.512-2.176 4.512-4.762v-1.19c-.287.328-1.107.533-2.256.656l-2.297.164c-2.338.206-3.24 1.15-3.24 2.464 0 1.6.984 2.668 3.281 2.668"/><path fill="#2C180B" fill-rule="evenodd" d="M188.52 62.642c3.519 0 6.371-2.764 6.371-6.173s-2.852-6.173-6.371-6.173-6.372 2.764-6.372 6.173 2.853 6.173 6.372 6.173m0 1.076c4.132 0 7.482-3.245 7.482-7.249s-3.35-7.25-7.482-7.25c-4.133 0-7.483 3.246-7.483 7.25s3.35 7.25 7.483 7.25" clip-rule="evenodd"/><path fill="#2C180B" d="M187.459 56.84v-.719h1.38q.414 0 .64-.204.234-.211.234-.581a.76.76 0 0 0-.227-.56q-.225-.225-.639-.226h-1.388v-.756h1.427q.515 0 .905.204.39.197.6.544.218.34.218.779 0 .46-.218.8-.21.34-.6.53-.39.188-.905.188zm-.616 2.243v-5.289h.897v5.29zm2.994 0-1.91-2.297.834-.294 2.207 2.591z"/></svg>