<svg xmlns="http://www.w3.org/2000/svg" width="186" height="100" fill="none"><path fill="#2C180B" d="M137 61.95h-4.905V47.036c0-3.613-1.295-5.466-4.673-5.466-3.563 0-5.876 2.687-5.876 7.04v13.34h-4.904v-23.9h4.673v4.169c1.295-2.78 3.609-4.632 7.588-4.632 5.459 0 8.097 2.779 8.097 8.569zm-34.021.463c-7.588 0-11.798-4.817-11.798-12.413s4.21-12.413 11.798-12.413S114.777 42.404 114.777 50s-4.21 12.413-11.798 12.413m0-3.752c4.395 0 6.894-2.871 6.894-8.661 0-5.743-2.499-8.661-6.894-8.661s-6.894 2.918-6.894 8.66c0 5.79 2.499 8.662 6.894 8.662"/><path fill="#2C180B" d="M93.057 61.95h-5.46l-6.107-8.57-6.154 8.57h-5.413l8.745-12.413-8.283-11.487H75.8l5.69 7.967 5.646-7.967h5.46l-8.283 11.487z"/><path fill="#2C180B" d="M60.548 62.413C52.96 62.413 48.75 57.596 48.75 50c0-7.364 3.979-12.413 11.52-12.413 7.542 0 11.521 5.141 11.521 11.996 0 .463-.046.88-.092 1.343H53.654c.14 5.651 2.823 8.106 6.894 8.106 3.378 0 5.506-1.76 6.246-4.493h4.489c-1.065 4.863-4.535 7.874-10.735 7.874m-.277-21.445c-3.702 0-6.108 2.223-6.617 6.716h13.233c-.509-4.493-2.915-6.716-6.616-6.716"/></svg>