<svg xmlns="http://www.w3.org/2000/svg" width="156" height="100" fill="none"><path fill="#2C180B" d="M105.947 64.68c-6.932 0-10.81-4.37-10.81-11.156 0-6.744 3.878-11.157 10.81-11.157 6.973 0 10.851 4.413 10.851 11.157 0 6.786-3.878 11.157-10.851 11.157m0-4.079c3.548 0 5.529-2.331 5.529-7.077s-1.981-7.077-5.529-7.077c-3.507 0-5.488 2.331-5.488 7.077s1.981 7.077 5.488 7.077m-12.2 3.663h-5.323V42.784h5.323zm-2.64-24.687c-1.981 0-3.095-1.207-3.095-2.789S89.126 34 91.106 34s3.053 1.207 3.053 2.79c0 1.581-1.072 2.788-3.053 2.788m-4.891 24.688h-5.322V34.625h5.322zm-17.098.414c-6.932 0-10.81-4.37-10.81-11.156 0-6.62 3.713-11.157 10.562-11.157 6.89 0 10.604 4.58 10.604 10.907 0 .458-.041.874-.083 1.374H63.63c.164 4.371 2.227 6.37 5.487 6.37 2.64 0 4.373-1.333 4.992-3.54h4.91c-.908 4.414-4.167 7.203-9.902 7.203m-.248-18.65c-2.93 0-4.786 1.707-5.24 5.121H74.15c-.454-3.414-2.351-5.12-5.28-5.12"/><path stroke="#2C180B" stroke-width="3" d="M52.034 39.981 40 52.991 52.034 66"/></svg>