<svg xmlns="http://www.w3.org/2000/svg" width="186" height="100" fill="none"><g clip-path="url(#a)"><path fill="#2C180B" d="M56.816 37.388c.208-.987 1.192-1.788 2.194-1.788h5.45l-4.532 21.458h-5.45c-1.003 0-1.648-.8-1.439-1.788zm18.166 0c.209-.987 1.192-1.788 2.194-1.788h5.45l-4.532 21.458h-5.45c-1.003 0-1.648-.8-1.44-1.788zm36.332 0c.208-.987 1.19-1.788 2.194-1.788h5.45l-4.532 21.458h-5.451c-1.003 0-1.647-.8-1.438-1.788zM84.443 35.6h5.45c1.002 0 1.647.8 1.438 1.788L87.555 55.27c-.209.988-1.192 1.788-2.195 1.788h-5.45zm36.331 0h5.45c1.003 0 1.648.8 1.439 1.788l-3.777 17.882c-.208.988-1.191 1.788-2.194 1.788h-5.45zm-27.626 1.788c.208-.987 1.19-1.788 2.194-1.788h5.45l-4.533 21.458h-5.45c-1.002 0-1.647-.8-1.438-1.788zm9.46-1.788h5.45c1.004 0 1.648.8 1.439 1.788l-5.665 26.824c-.21.987-1.192 1.788-2.195 1.788h-5.45zM63.255 49.906h7.267l-1.133 5.364c-.209.988-1.192 1.788-2.194 1.788h-5.45zm25.361 8.941h7.266L94.372 66h-5.45c-1.004 0-1.648-.8-1.44-1.788zm19.723 1.663-.92 4.357c-.04.187-.102.239-.293.239h-.418c-.19 0-.232-.052-.192-.239l.92-4.357c.04-.186.102-.238.293-.238h.418c.191 0 .232.052.192.238m1.21 2.94h-.086c-.091 0-.123.025-.141.116l-.276 1.301c-.04.187-.103.239-.292.239h-.42c-.189 0-.231-.052-.192-.239l.92-4.357c.04-.186.104-.238.294-.238h.864c.995 0 1.372.354 1.188 1.224l-.154.729c-.184.87-.71 1.225-1.705 1.225m.253-2.16-.24 1.141c-.02.09 0 .116.092.116h.138c.32 0 .492-.129.562-.457l.096-.458c.069-.328-.048-.458-.368-.458h-.138c-.091 0-.123.026-.142.116m2.99.703.68.748c.357.386.406.618.315 1.05l-.024.116c-.172.812-.581 1.263-1.531 1.263-.949 0-1.183-.38-.964-1.418l.027-.128c.04-.187.103-.24.293-.24h.445c.19 0 .232.053.192.24l-.06.283c-.055.258.029.361.257.361.23 0 .355-.096.404-.328l.026-.123c.038-.181.018-.27-.179-.483l-.64-.69c-.359-.38-.404-.6-.313-1.032l.03-.14c.172-.813.581-1.265 1.53-1.265s1.184.381.965 1.419l-.027.128c-.04.188-.104.239-.293.239h-.446c-.189 0-.231-.051-.192-.239l.06-.283c.055-.258-.028-.36-.257-.36s-.355.095-.404.327l-.023.11c-.04.187-.019.278.129.445m3.834-1.483c.04-.186.102-.238.292-.238h.419c.19 0 .232.052.192.238l-.685 3.243c-.219 1.037-.614 1.417-1.563 1.417s-1.183-.38-.964-1.418l.685-3.242c.04-.186.103-.238.292-.238h.42c.189 0 .231.052.192.238l-.718 3.397c-.054.258.035.361.284.361.242 0 .382-.103.436-.36zm2.724 2.624c.003.052.02.064.052.064s.056-.012.08-.064l1.131-2.694c.055-.136.121-.168.285-.168h.635c.189 0 .231.052.192.238l-.92 4.357c-.04.187-.104.239-.294.239h-.301c-.189 0-.232-.052-.192-.239l.442-2.088c.012-.057.002-.071-.038-.071-.026 0-.056.014-.072.058l-.913 2.128c-.066.154-.15.212-.339.212h-.178c-.197 0-.256-.058-.256-.212l-.022-2.128c-.004-.045-.015-.058-.048-.058-.039 0-.055.014-.067.071l-.441 2.088c-.04.187-.102.239-.292.239h-.301c-.191 0-.232-.052-.192-.239l.92-4.357c.04-.186.103-.238.293-.238h.544c.228 0 .302.052.3.278zM133 35.6c0 .884-.712 1.6-1.59 1.6a1.6 1.6 0 0 1-1.47-.99 1.6 1.6 0 0 1-.119-.61c0-.884.712-1.6 1.589-1.6.878 0 1.59.716 1.59 1.6"/></g><defs><clipPath id="a"><path fill="#fff" d="M53 34h80v32H53z"/></clipPath></defs></svg>