<svg xmlns="http://www.w3.org/2000/svg" width="176" height="100" fill="none"><path fill="#2C180B" d="M142.902 62.203c-6.949 0-10.804-4.438-10.804-11.435 0-6.784 3.643-11.435 10.55-11.435 6.906 0 10.55 4.736 10.55 11.05 0 .428-.043.812-.085 1.238h-16.524c.127 5.206 2.584 7.467 6.313 7.467 3.093 0 5.042-1.621 5.72-4.139h4.109c-.974 4.48-4.152 7.254-9.829 7.254m-.254-19.755c-3.39 0-5.593 2.048-6.059 6.187h12.117c-.466-4.14-2.669-6.187-6.058-6.187"/><path fill="#2C180B" d="M122.618 62.203c-6.864 0-9.491-3.03-9.491-7.254h4.322c.211 2.518 1.313 4.224 5.211 4.224 3.813 0 4.957-1.664 4.957-3.541 0-1.75-1.271-2.645-3.347-2.944l-4.025-.597c-4.576-.64-6.525-2.262-6.525-5.931 0-3.797 2.373-6.827 8.898-6.827s8.897 3.03 8.897 6.912h-4.321c-.212-2.048-.89-3.882-4.619-3.882-3.177 0-4.364 1.322-4.364 3.456 0 1.792 1.017 2.432 2.712 2.688l4.025.597c4.449.64 7.16 2.261 7.16 6.272 0 3.797-2.627 6.827-9.49 6.827m-17.047-.427h-4.491V39.76h4.279v5.077c1.144-3.882 3.093-5.333 6.271-5.333.593 0 1.441.128 1.991.256v3.968l-2.16-.085c-3.559 0-5.89 2.773-5.89 7.68zm-15.616.427c-6.949 0-10.805-4.438-10.805-11.435 0-6.784 3.644-11.435 10.55-11.435s10.55 4.736 10.55 11.05c0 .428-.042.812-.084 1.238H83.641c.128 5.206 2.585 7.467 6.314 7.467 3.093 0 5.041-1.621 5.72-4.139h4.11c-.975 4.48-4.153 7.254-9.83 7.254M89.7 42.448c-3.39 0-5.592 2.048-6.059 6.187H95.76c-.466-4.14-2.67-6.187-6.059-6.187M72.976 61.776h-5.424L59.248 39.76h4.66l6.356 18.005 6.313-18.005h4.703z"/><path fill="#2C180B" fill-rule="evenodd" d="m31.12 36.962 17.168 19.149-7.899 6.927L23.221 43.89z" clip-rule="evenodd"/><path fill="#2C180B" fill-rule="evenodd" d="m51.813 46.245-10.967 7.178 4.65-16.62z" clip-rule="evenodd"/></svg>