<svg xmlns="http://www.w3.org/2000/svg" width="156" height="100" fill="none"><path fill="#2C180B" d="M118.534 65.867c-1.851 0-2.909-1.152-2.909-2.615 0-1.462 1.058-2.614 2.909-2.614s2.864 1.152 2.864 2.614c0 1.463-1.014 2.615-2.864 2.615"/><path fill="#2C180B" d="M116.222 65.557h-5.2l-5.817-8.2-5.861 8.2h-5.156l8.328-11.878-7.888-10.992h5.156l5.421 7.624 5.376-7.623h5.2l-7.888 10.991z"/><path fill="#2C180B" d="M83.141 66c-5.288 0-8.153-2.66-8.153-6.914 0-3.413 2.072-6.117 7.712-6.604l4.407-.355c2.688-.266 3.482-.886 3.482-2.349 0-2.615-1.499-4.166-4.804-4.166-3.085 0-4.76 1.33-4.98 4.166h-4.583c0-4.609 2.82-7.534 9.519-7.534 6.654 0 9.519 2.925 9.519 7.534v9.928c0 3.103.264 5.097.705 5.85h-4.187c-.705-.886-.97-1.816-.97-3.944C89.576 64.537 87.064 66 83.142 66m1.278-3.235c4.01 0 6.17-3.147 6.17-6.915V53.9c-.485.62-1.72.975-3.482 1.108l-2.908.266c-3.261.266-4.54 1.64-4.54 3.502 0 2.349 1.41 3.989 4.76 3.989m-10.315 2.792h-4.671V34h4.67zM57.859 66C50.63 66 46.62 61.39 46.62 54.122c0-7.047 3.79-11.878 10.973-11.878s10.973 4.92 10.973 11.479c0 .443-.044.842-.088 1.285H51.292c.133 5.407 2.689 7.757 6.567 7.757 3.217 0 5.244-1.685 5.949-4.3h4.274C67.07 63.12 63.765 66 57.86 66m-.265-20.52c-3.525 0-5.817 2.127-6.302 6.426h12.604c-.485-4.3-2.776-6.427-6.302-6.427"/><path fill="#2C180B" d="M39.671 65.556H35V49.859l4.45-7.173v5.275c1.19-4.034 3.218-5.54 6.523-5.54.617 0 1.498.132 2.071.265v4.122l-2.247-.089c-3.702 0-6.126 2.881-6.126 7.978z"/></svg>