<svg xmlns="http://www.w3.org/2000/svg" width="178" height="100" fill="none"><path fill="#2C180B" d="M127.78 64.77c-3.631 0-5.916-1.596-7.058-4.296v3.887h-4.12V35.23h4.324v11.62c1.183-2.62 3.468-4.01 6.854-4.01 5.67 0 9.22 4.05 9.22 10.964s-3.55 10.965-9.22 10.965m-.979-3.314c3.467 0 5.874-2.332 5.874-7.65 0-5.278-2.407-7.651-5.874-7.651-3.509 0-5.875 2.373-5.875 7.65 0 5.319 2.366 7.65 5.875 7.65m-23.052 3.316c-4.895 0-7.547-2.455-7.547-6.382 0-3.15 1.918-5.646 7.14-6.096l4.079-.328c2.489-.245 3.223-.818 3.223-2.168 0-2.414-1.387-3.846-4.447-3.846-2.855 0-4.406 1.227-4.61 3.846h-4.243c0-4.255 2.611-6.955 8.812-6.955 6.161 0 8.812 2.7 8.812 6.955v9.164c0 2.864.245 4.705.653 5.4h-3.875c-.653-.818-.898-1.677-.898-3.64-1.142 2.7-3.468 4.05-7.099 4.05m1.184-2.987c3.712 0 5.711-2.905 5.711-6.382v-1.8c-.449.572-1.591.9-3.223 1.023l-2.692.245c-3.019.245-4.202 1.514-4.202 3.232 0 2.168 1.305 3.682 4.406 3.682m-9.55 2.577h-4.324V35.232h4.324zm-15.555.41c-6.69 0-10.403-4.255-10.403-10.965s3.712-10.964 10.403-10.964c6.69 0 10.403 4.255 10.403 10.964S86.519 64.77 79.828 64.77m0-3.314c3.876 0 6.078-2.537 6.078-7.65 0-5.074-2.203-7.651-6.078-7.651s-6.079 2.577-6.079 7.65c0 5.114 2.203 7.65 6.079 7.65"/><path fill="#2C180B" fill-rule="evenodd" d="M62.25 64.21h-10.2V58a21.1 21.1 0 0 1-11.049 3.103V50.875c6.102 0 11.049-4.96 11.049-11.08v-2.86h10.2z" clip-rule="evenodd"/><path fill="#2C180B" fill-rule="evenodd" d="M41.003 38.64h5.95v6.819h-5.95z" clip-rule="evenodd"/></svg>